<?xml version="1.0" encoding="utf-8"?>
<!-- Generator: Adobe Illustrator 21.0.0, SVG Export Plug-In . SVG Version: 6.00 Build 0)  -->
<svg version="1.1" id="Calque_1" xmlns="http://www.w3.org/2000/svg" xmlns:xlink="http://www.w3.org/1999/xlink" x="0px" y="0px"
	 viewBox="0 0 134.3 25.2" style="enable-background:new 0 0 134.3 25.2;" xml:space="preserve">
<style type="text/css">
	.st0{fill:#FFFFFF;}
</style>
<g>
	<path class="st0" d="M12.8,3c-0.6,2.9-0.9,4.5-1.3,5.9c-1.3,5-2.8,8-4.9,10c-1,0.9-2,1.5-2.8,1.7c-2.2,0-3.9-1-3.9-2.5
		c0-0.8,0.4-2,1.2-3.6c0.7,0.1,1.9,0.6,2.3,1c-0.9,0.9-1.5,2.2-1.5,3c0,0.5,0.2,0.9,0.6,1.2C4.3,19,6,17.2,7.2,14.6
		c1.5-3.1,2.5-8.3,2.5-10.8c0-0.4-0.1-1.6-0.1-1.8C10.7,2,11.9,2.4,12.8,3z"/>
	<path class="st0" d="M14,15c0,0.2,0,0.4,0,0.5c0,0.7,0.2,1.7,1,1.7c1.5,0,3-1.5,3.8-2.5c0.1,0.1,0.3,0.2,0.4,0.4
		c-1.3,1.7-2.9,2.9-4.2,3.1c-1.9-0.2-3.1-1.5-3.1-3.2c0-3.4,3.1-7.5,5.9-7.5c0.6,0.1,1.2,0.5,1.8,1.2C19.4,12.2,17.6,13.6,14,15z
		 M14.2,14.2c2.2-1.1,3.9-2.8,4-4.7C16.7,9.7,14.9,11.6,14.2,14.2z"/>
	<path class="st0" d="M29.4,9.7c-1.1,2.4-1.9,4.8-1.9,6.3c0,0.8,0.2,1.3,0.5,1.5c-0.3,0.2-0.9,0.4-1.4,0.4c-0.8,0-1.1-0.5-1.1-1.6
		c0-0.8,0.3-1.9,0.8-3.3c-1.1,2.6-3,4.7-4.3,4.9c-1,0-1.7-1.1-1.7-2.5c0-3.1,3-7.4,5.3-7.5C26.2,8,27.1,9,27.2,9.5
		c-2.2,0.4-5,4.1-5,6.7c0,0.3,0.1,0.4,0.3,0.5c0.8-0.2,1.8-1.3,3.3-3.9c0.6-1,1.4-2.6,2-3.8C28.4,9,29.4,9.5,29.4,9.7z"/>
	<path class="st0" d="M35.6,9.3c-0.6,1.5-2.8,4.5-3,5.8c0.9-0.9,2.3-2.7,2.8-3.2c1.1-1.1,3-3.2,4.4-3.2c0.7,0,1.2,0.6,1.5,1.1
		c0,0.1-0.2,0.1-0.6,0.5c-0.8,1-2.2,3.8-2.2,5.5c0,0.7,0.2,0.8,0.5,0.8c0.3,0,0.7-0.2,0.9-0.2c0.1,0.1,0.2,0.3,0.2,0.4
		c-0.4,0.4-1.3,0.9-1.8,0.9c-1.6,0-2-1-2-2.2c0-0.7,0.2-1.6,1.2-3.8c-0.1,0-0.9,0.4-1.7,1.2c-1.3,1.3-2.3,2.4-3.4,3.9
		c-0.6,0.9-1.1,1.5-1.4,1.7c-0.6-0.3-0.8-1-1-1.6c0-1,0.6-3.4,1.6-5.6c1.1-2.5,2.1-3.9,2.3-4C34.6,7.5,35.3,8.4,35.6,9.3z"/>
	<path class="st0" d="M49.4,14.4c0-3.8,0.6-6.5,0.9-12.3c0.8,0,3,0.9,3.2,1.3C52.6,5.5,52,10.9,52,14.7c0,0.9,0,1.8,0.1,2.5
		c1.7-2.6,5.5-12.8,6-15.2c0.8,0,3.1,0.9,3.2,1.3c-0.9,2.2-1.5,7.5-1.5,11.4c0,0.8,0,1.6,0.1,2.3c2.7-7,6.2-13.8,7.1-14.7
		c0.7,0.1,1.4,0.5,1.9,1.1c-2.5,1.9-7.1,12.2-8.3,15.5c-0.4,0.2-0.7,0.3-1.1,0.3c-0.9-0.1-1.8-0.5-2.1-0.9c-0.2-0.9-0.2-2.5-0.2-3.2
		c0-2.5,0.2-5,0.5-8c-1.3,3.8-3.2,9-4.9,11.9c-0.4,0.2-0.7,0.3-1.1,0.3c-0.9-0.1-1.8-0.5-2.1-0.9C49.5,17,49.4,15.5,49.4,14.4z"/>
	<path class="st0" d="M67.7,15c0,0.2,0,0.4,0,0.5c0,0.7,0.2,1.7,1,1.7c1.5,0,3-1.5,3.8-2.5c0.1,0.1,0.3,0.2,0.4,0.4
		c-1.3,1.7-2.9,2.9-4.2,3.1c-1.9-0.2-3.1-1.5-3.1-3.2c0-3.4,3.1-7.5,5.9-7.5c0.6,0.1,1.2,0.5,1.8,1.2C73.1,12.2,71.3,13.6,67.7,15z
		 M67.9,14.2c2.2-1.1,3.9-2.8,4-4.7C70.3,9.7,68.5,11.6,67.9,14.2z"/>
	<path class="st0" d="M81.8,8.8c0-0.1-0.1-0.3-0.3-0.3c-1.2,0-5.5,6.7-5.7,8.8c-0.1,0-0.3-0.2-0.4-0.4c0-0.1-0.2-0.3-0.5-0.5
		c-0.1-0.1-0.3-0.3-0.4-0.4c-0.1-0.1-0.1-0.3-0.1-0.5c0-5,4-14.3,6.7-15.4c0.5,0.2,1.7,0.9,2,1.3C80.2,3.7,78,7.7,76.5,13
		c1.6-2.9,4.1-5.6,5.3-5.6c0.9,0.2,1.7,1.2,1.8,2.2c-0.1,3.6-3.6,8.7-6,8.7c-0.7,0-1.5-0.3-1.5-0.6C78.8,15.9,81.3,12,81.8,8.8z"/>
	<path class="st0" d="M90.7,8.6c-0.3-2.2-0.8-3.8-2.8-7c0.2-0.5,1.2-1.4,2-1.5c1.6,1.7,2.9,5.4,2.9,8.3c0,4.4-3.1,9.8-5.9,10.2
		c-1.9-0.2-3-1.3-3-3c0-2.9,2.8-7.4,5-7.9C89.3,7.7,90.1,8.1,90.7,8.6z M90.7,9.6c0-0.5,0-0.5,0-0.6c-2,0.9-5,5.4-5,7.6
		c0,0.7,0.3,1.1,0.9,1.2C88.6,17.1,90.7,12.8,90.7,9.6z"/>
	<path class="st0" d="M95.2,15c0,0.2,0,0.4,0,0.5c0,0.7,0.2,1.7,1,1.7c1.5,0,3-1.5,3.8-2.5c0.1,0.1,0.3,0.2,0.4,0.4
		c-1.3,1.7-2.9,2.9-4.2,3.1c-1.9-0.2-3.1-1.5-3.1-3.2c0-3.4,3.1-7.5,5.9-7.5c0.6,0.1,1.2,0.5,1.8,1.2C100.6,12.2,98.8,13.6,95.2,15z
		 M95.4,14.2c2.2-1.1,3.9-2.8,4-4.7C97.8,9.7,96,11.6,95.4,14.2z"/>
	<path class="st0" d="M107.9,11.5c-0.2,0-0.3-0.1-0.3-0.3c0-0.2,0.3-0.8,0.3-1.1c0-0.4-0.2-0.7-0.5-0.7c-1.1,0-1.7,1.4-1.7,4.1
		c0,0.2,0,0.2,0,0.3c0.6,0,1,0,1.5,0c0,0,0,0.1,0,0.2s0,0.2-0.1,0.3c-1.3,0.3-1.4,0.3-1.4,0.7c0,0.2,0,0.4,0,0.8
		c0,2.3-1.4,3.8-3.6,4.1c-0.8-0.1-1.8-0.9-2-1.6c0-2.1,1.9-3.9,4.3-4.1c0-1.4-0.7-2.6-0.7-3.8c0-1.5,1.3-3.1,2.8-3.4
		c0.6,0.2,2.2,1.8,2.4,2.5C108.9,10.2,108.3,11.5,107.9,11.5z M104.6,15c-1.1,0.1-2.9,2-2.9,2.9c0,0.3,0.1,0.6,0.4,0.8
		C103.4,18.2,104.6,16.5,104.6,15z"/>
	<path class="st0" d="M109.8,12.1c0.1-0.5,0.7-2.7,2-3.4c0.5,0.1,1.4,0.6,2,1.4c-1.3,1.4-1.7,2.9-2.4,4.8c-0.3,0.8-0.6,1.7-0.6,2.3
		c0,0.5,0,0.7-0.1,0.7c-0.2,0-1.5-0.5-1.5-1.8C109.1,15.6,109.2,14.6,109.8,12.1z M113.1,6.6c-0.1-0.1-0.3-0.5-0.3-0.7
		c0-0.5,0.3-1.8,0.7-2.8c0.7,0,2.1,0.8,2.5,1.5c-0.6,0.6-2.2,2.5-2.4,2.9c-0.3-0.1-0.6-0.3-0.6-0.6C113.1,6.9,113.1,6.8,113.1,6.6z"
		/>
	<path class="st0" d="M110,23.3c0.7,0.6,0.9,0.7,1.5,0.7c2.9,0,5.3-3.1,6.8-8.5c-0.7,0.7-2.1,1.7-2.8,2c-0.9-0.2-1.7-1.3-1.7-2.7
		c0-3.3,3.9-7.4,6.8-7.4c1,0,1.4,0.4,1.6,1.3c-0.1-0.1-0.4-0.1-0.6-0.1c-2,0-6.2,5.2-6.2,7.7c0,0.2,0,0.2,0.1,0.2
		c0.5,0,1.9-1.2,2.9-2.4c1.2-1.3,2.2-3.1,2.8-4.7c0.8,0,1.4,0.3,1.6,0.5c-0.9,2.2-1.5,3.6-1.9,4.7c-1.5,4-2.5,6.6-4.5,8.8
		c-1,1.1-2.5,1.6-3.5,1.6c-1.4,0-2.9-0.7-3.3-1.4C109.7,23.6,109.9,23.4,110,23.3z"/>
	<path class="st0" d="M128.6,9.3c-0.6,1.5-2.8,4.5-3,5.8c0.9-0.9,2.3-2.7,2.8-3.2c1.1-1.1,3-3.2,4.4-3.2c0.7,0,1.2,0.6,1.5,1.1
		c0,0.1-0.2,0.1-0.6,0.5c-0.8,1-2.2,3.8-2.2,5.5c0,0.7,0.2,0.8,0.5,0.8c0.3,0,0.7-0.2,0.9-0.2c0.1,0.1,0.2,0.3,0.2,0.4
		c-0.4,0.4-1.3,0.9-1.8,0.9c-1.6,0-2-1-2-2.2c0-0.7,0.2-1.6,1.2-3.8c-0.1,0-0.9,0.4-1.7,1.2c-1.3,1.3-2.3,2.4-3.4,3.9
		c-0.6,0.9-1.1,1.5-1.4,1.7c-0.6-0.3-0.8-1-1-1.6c0-1,0.6-3.4,1.6-5.6c1.1-2.5,2.1-3.9,2.3-4C127.6,7.5,128.3,8.4,128.6,9.3z"/>
</g>
</svg>
